<svg width="89" height="89" viewBox="0 0 89 89" fill="none" xmlns="http://www.w3.org/2000/svg">
<path d="M67.1807 30.6661C67.737 31.5562 67.4032 32.6688 66.6244 33.2251C66.2906 33.4477 65.9568 33.5589 65.623 33.5589C64.9554 33.5589 64.3991 33.2251 63.954 32.6688C63.3977 31.7787 63.7315 30.6661 64.5103 30.1097C65.5117 29.4422 66.6244 29.7759 67.1807 30.6661ZM45.5954 71.2775C45.7067 71.2775 45.7067 71.2775 45.5954 71.2775C46.7081 71.2775 47.4869 70.3874 47.4869 69.2747C47.4869 68.2734 46.5968 67.3833 45.4842 67.4945C44.4828 67.4945 43.5927 68.3846 43.7039 69.4973C43.8152 70.4987 44.594 71.2775 45.5954 71.2775ZM45.5954 19.8734C45.5954 18.872 44.7053 17.9819 43.5927 18.0932C42.5913 18.0932 41.7012 18.9833 41.8124 20.096C41.8124 21.0973 42.7026 21.8762 43.7039 21.8762C43.7039 21.8762 43.7039 21.8762 43.8152 21.8762C44.8166 21.7649 45.7067 20.8748 45.5954 19.8734ZM69.0722 50.1373C69.9623 50.1373 70.8524 49.4697 70.9637 48.4683C71.0749 47.467 70.4074 46.4656 69.406 46.3543C68.4046 46.2431 67.4032 46.9106 67.292 47.912C67.1807 48.9134 67.8483 49.9148 68.8497 50.026C68.9609 50.1373 68.9609 50.1373 69.0722 50.1373ZM54.0515 69.4973C54.274 69.4973 54.4966 69.4973 54.7191 69.386C55.7205 68.941 56.1655 67.8283 55.7205 66.9382C55.2754 65.9368 54.1628 65.4918 53.2727 65.9368C52.2713 66.3819 51.8262 67.4945 52.2713 68.3846C52.6051 69.0522 53.2727 69.4973 54.0515 69.4973ZM61.0612 65.0467C61.5062 65.0467 61.9513 64.9354 62.2851 64.6017C63.0639 63.9341 63.1752 62.7102 62.3963 61.9313C61.7287 61.1525 60.5048 61.0412 59.726 61.8201C59.0584 62.4876 58.9471 63.6003 59.6147 64.3791C60.0598 64.8242 60.5048 65.0467 61.0612 65.0467ZM61.3949 26.3268C62.0625 25.5479 61.84 24.324 61.0612 23.6564C60.2823 22.9888 59.0584 23.2114 58.3908 23.9902C57.7232 24.7691 57.9458 25.993 58.7246 26.6605C59.0584 26.8831 59.5035 27.1056 59.9485 27.1056C60.3936 27.1056 60.9499 26.8831 61.3949 26.3268ZM28.3495 65.8256C28.6833 66.0481 29.1283 66.2706 29.4621 66.2706C30.0184 66.2706 30.5747 66.0481 31.0198 65.4918C31.6874 64.7129 31.4649 63.489 30.686 62.8214C29.9072 62.1538 28.6833 62.3764 28.0157 63.1552C27.3481 63.9341 27.4594 65.158 28.3495 65.8256ZM29.2396 27.7732C30.0184 27.1056 30.0184 25.8817 29.3508 25.1028C28.6833 24.324 27.4594 24.2127 26.6805 24.9916C25.9017 25.6592 25.7904 26.8831 26.5692 27.6619C26.903 28.107 27.4594 28.3295 28.0157 28.3295C28.4607 28.2182 28.9058 28.107 29.2396 27.7732ZM36.583 70.0536C36.8055 70.1649 36.9168 70.1649 37.1393 70.1649C37.9182 70.1649 38.697 69.6085 38.9196 68.8297C39.2534 67.8283 38.697 66.7157 37.6957 66.4931C36.6943 66.1594 35.5816 66.7157 35.3591 67.717C35.0253 68.7184 35.5816 69.7198 36.583 70.0536ZM65.5117 58.0371C65.8455 58.1483 66.068 58.2596 66.4018 58.2596C67.0694 58.2596 67.737 57.9258 68.0708 57.2582C68.5159 56.3681 68.1821 55.1442 67.292 54.6991C66.4018 54.2541 65.1779 54.5879 64.7329 55.478C64.1766 56.4794 64.6216 57.592 65.5117 58.0371ZM36.0267 23.5451C37.0281 23.1001 37.4731 22.0987 37.0281 21.0973C36.583 20.096 35.5816 19.6509 34.5803 20.096C33.5789 20.541 33.1338 21.5424 33.5789 22.5438C33.9127 23.3226 34.5803 23.7677 35.3591 23.7677C35.5816 23.6564 35.8042 23.5451 36.0267 23.5451ZM21.7849 34.7828C22.1187 34.8941 22.3412 35.0054 22.675 35.0054C23.3426 35.0054 24.0102 34.6716 24.344 34.004C24.789 33.1139 24.4552 31.89 23.5651 31.4449C22.675 30.9998 21.4511 31.3336 21.006 32.2238C20.561 33.1139 20.8948 34.3378 21.7849 34.7828ZM18.2244 41.0136C18.1132 42.015 18.7807 43.0164 19.8934 43.1277C20.0046 43.1277 20.1159 43.1277 20.1159 43.1277C21.006 43.1277 21.8961 42.4601 22.0074 41.4587C22.1187 40.4573 21.4511 39.4559 20.3384 39.3447C19.3371 39.3447 18.3357 40.0123 18.2244 41.0136ZM20.4497 51.8063C20.561 51.8063 20.6722 51.8063 20.8948 51.8063C21.8961 51.5837 22.5637 50.5824 22.3412 49.581C22.1187 48.5796 21.1173 47.912 20.1159 48.1345C19.1145 48.3571 18.4469 49.3585 18.6695 50.3598C18.7807 51.2499 19.5596 51.8063 20.4497 51.8063ZM23.6764 59.8173C24.0102 59.8173 24.344 59.706 24.6777 59.4835C25.5679 58.9272 25.7904 57.7033 25.2341 56.9244C24.6777 56.0343 23.4538 55.8118 22.5637 56.3681C21.6736 56.9244 21.4511 58.1483 22.0074 58.9272C22.4525 59.4835 23.0088 59.8173 23.6764 59.8173ZM54.0515 21.7649C54.3853 20.7635 53.829 19.6509 52.8276 19.4284C51.8262 19.0946 50.7136 19.6509 50.3798 20.6523C50.046 21.6537 50.6023 22.7663 51.6037 23.1001C51.8262 23.2114 52.0488 23.2114 52.16 23.2114C53.0501 23.1001 53.829 22.5438 54.0515 21.7649ZM66.9582 40.0123C67.1807 40.9024 67.9595 41.57 68.8497 41.57C68.9609 41.57 69.0722 41.57 69.2947 41.57C70.2961 41.3474 70.9637 40.3461 70.7411 39.3447C70.5186 38.3433 69.5172 37.6757 68.5159 37.8982C67.4032 38.0095 66.7356 39.0109 66.9582 40.0123ZM72.4101 15.7566H68.1821C67.1807 15.7566 66.2906 16.6468 66.2906 17.6481C66.2906 18.6495 67.1807 19.5396 68.1821 19.5396L76.9719 19.4284C77.5283 19.4284 77.9733 19.2058 78.3071 18.872C78.6409 18.5383 78.8634 17.9819 78.8634 17.5369L78.7522 8.747C78.7522 7.74562 77.8621 6.85551 76.8607 6.85551C75.8593 6.85551 74.9692 7.74562 74.9692 8.747V12.975C66.7356 4.96402 55.7205 0.62471 44.0377 0.735974C32.355 0.847239 21.3398 5.52034 13.1063 13.9764C1.31225 26.1042 -2.582 43.5727 3.20374 59.5948C3.42627 60.3736 4.20512 60.8187 4.98397 60.8187C5.2065 60.8187 5.42903 60.8187 5.65156 60.7074C6.65294 60.3736 7.09799 59.261 6.7642 58.2596C1.53478 43.684 4.98397 27.6619 15.8879 16.5355C31.2423 0.84724 56.6106 0.513447 72.4101 15.7566ZM45.1504 88.6347C56.9444 88.5235 67.8483 83.8504 76.0818 75.3943C87.9871 63.2665 91.7701 45.798 85.9843 29.7759C85.6506 28.7746 84.5379 28.3295 83.5365 28.6633C82.5351 28.9971 82.0901 30.1097 82.4239 31.1111C87.6533 45.6867 84.2041 61.7088 73.3002 72.8352C65.8455 80.4012 55.8317 84.7405 45.0391 84.8517C34.469 84.963 24.344 80.9575 16.778 73.6141H21.006C22.0074 73.6141 22.8975 72.724 22.8975 71.7226C22.8975 70.7212 22.0074 69.8311 21.006 69.8311L12.2161 69.9423C11.6598 69.9423 11.2148 70.1649 10.881 70.4987C10.5472 70.8325 10.3247 71.3888 10.3247 71.8338L10.4359 80.6237C10.4359 81.6251 11.326 82.5152 12.3274 82.5152C13.3288 82.5152 14.2189 81.6251 14.2189 80.6237V76.3957C22.3412 84.2954 33.1338 88.6347 44.594 88.6347C44.7053 88.6347 44.9278 88.6347 45.1504 88.6347Z" fill="#6467E3"/>
</svg>
