<svg xmlns="http://www.w3.org/2000/svg" xmlns:xlink="http://www.w3.org/1999/xlink" version="1.1" x="0px" y="0px" viewBox="0 0 100 125" style="enable-background:new 0 0 100 100;" xml:space="preserve"><path d="M65.2009811,62.3051071c6.6035233-4.8376122,10.5450516-12.6043472,10.5450516-20.7761497  c0.2906113-13.8362675-11.9118881-26.0347137-25.7431374-25.746357  c-13.7140923-0.0209103-25.3384628,11.2617035-25.7386379,24.9614487  c-0.2501411,8.4368668,3.6522713,16.4707298,10.4400578,21.4905434c2.0536308,1.5193787,3.2796326,3.9096184,3.2796326,6.3940468  v5.8125687c-3.7667885,0.8829575-4.7827301,6.2718124-1.744812,8.5803375  c-3.5882568,2.8793945-1.46315,9.0502548,3.2906303,8.7662735C40.0529556,96.1252136,43.7497444,99.5,48.2263641,99.5h3.5472717  c4.4766197,0,8.1734085-3.3747864,8.6965981-7.7121811c4.7557716,0.2839203,6.8775978-5.889061,3.2906303-8.7662735  c3.0388184-2.3092346,2.0208206-7.6977615-1.744812-8.5803375v-5.7024231  C62.0160522,66.1714859,63.2070541,63.7663231,65.2009811,62.3051071z M51.7736359,97.3918152h-3.5472717  c-3.3125725,0-6.0682449-2.4319305-6.5747032-5.6039963h16.6966782  C57.8418808,94.9598846,55.0862083,97.3918152,51.7736359,97.3918152z M63.4407272,79.033699  c0.1226234,1.5595856-1.0889664,2.9413452-2.6702347,2.933754h-2.1699524  c-1.3829193,0.0068893-1.3750038,2.1025314,0.0000648,2.1081924c-0.0000648,0,2.1698875,0,2.1698875,0  c3.542572,0.0387955,3.5520935,5.5628128-0.0000648,5.6039886c0.0000648,0-21.5409203,0-21.5409203,0  c-1.5798531,0.0074615-2.7944031-1.3742371-2.6702347-2.933754c0-1.4725418,1.1982117-2.6702347,2.6702347-2.6702347h7.5268898  c1.3808594-0.0064392,1.3766785-2.1025314-0.0000648-2.1081924c0.0000648,0-7.526825,0-7.526825,0  c-3.5421257-0.0387268-3.5524178-5.562233,0.0000648-5.6034775c-0.0000648,0,21.5409203,0,21.5409203,0  C62.2425156,76.3639755,63.4407272,77.561676,63.4407272,79.033699z M45.108345,55.2280579h-3.3547745  c-1.8498116,0-3.3547783-1.5049629-3.3547783-3.3547745c0.1161919-4.4234772,6.5939407-4.423027,6.7095528,0.0000648  C45.108345,51.8732834,45.108345,55.2280579,45.108345,55.2280579z M47.2165337,74.2557907V57.3362465h5.5669327v16.9195442  H47.2165337z M59.9078636,68.7387848v5.5170059H54.891655V57.3362465h3.3547745  c7.2190399-0.2291679,7.2183304-10.6974678-0.0001259-10.92593c-3.0118637,0-5.4628372,2.4504623-5.4628372,5.4629669v3.3547745  h-5.5669327v-3.3547745c-0.2291679-7.2190399-10.6974716-7.2183304-10.92593,0.0001259  c0,3.0123787,2.4509735,5.4628372,5.4629669,5.4628372h3.3547745v16.9195442h-5.0162086v-5.6271515  c0-3.1499329-1.5451126-6.1732445-4.1340256-8.0889359c-18.1029549-13.4855042-8.7448483-42.0886078,13.7021904-42.6465378  c12.7992249-0.4786644,24.260437,10.8155289,23.977356,23.6359844c0.0001907,7.5025024-3.6191406,14.6335907-9.6822357,19.0754051  C61.4210663,62.4615707,59.9078636,65.502388,59.9078636,68.7387848z M54.891655,55.2280579v-3.3547745  c0-1.8498116,1.5049667-3.3547783,3.3547745-3.3547783c4.4234123,0.1161919,4.423027,6.5939407-0.0001259,6.7095528  C58.2464294,55.2280579,54.891655,55.2280579,54.891655,55.2280579z M28.6443062,63.4945641  c0.4117546,0.4117546,0.4117546,1.0788002,0,1.490551l-6.611763,6.6112518c-0.4117546,0.4117508-1.0787983,0.4117508-1.4905529,0  c-0.4117565-0.4117584-0.4117565-1.0787964,0-1.4905548l6.6117611-6.611248  C27.5655079,63.0828094,28.2325516,63.0828094,28.6443062,63.4945641z M71.35569,20.7831764  c-0.4117508-0.4117546-0.4117508-1.0787983,0-1.4905548l6.611763-6.6112471c0.4117584-0.4117556,1.078804-0.4117556,1.4905548,0  c0.4117584,0.4117546,0.4117584,1.0787983,0,1.4905539l-6.611763,6.611248  C72.434494,21.194931,71.7674484,21.194931,71.35569,20.7831764z M19.7987709,42.1388702  c0,0.582119-0.4714603,1.0540924-1.0540943,1.0540924H9.3947411c-0.582634,0-1.0540934-0.4719734-1.0540934-1.0540924  s0.4714594-1.0540924,1.0540934-1.0540924h9.3499355C19.3273106,41.0847778,19.7987709,41.5567513,19.7987709,42.1388702z   M91.6593552,42.1388702c0,0.582119-0.4714661,1.0540924-1.0541,1.0540924h-9.3499298  c-0.582634,0-1.0540924-0.4719734-1.0540924-1.0540924s0.4714584-1.0540924,1.0540924-1.0540924h9.3499298  C91.1878891,41.0847778,91.6593552,41.5567513,91.6593552,42.1388702z M20.5420532,14.1719284  c-0.9725151-0.9804926,0.5145664-2.4592085,1.49049-1.4905539c0,0,6.611763,6.6112471,6.6116982,6.6112471  c0.6731567,0.6270256,0.15518,1.8300591-0.7452126,1.7993717c-0.2696991,0-0.5394001-0.1029396-0.7452774-0.3088169  C27.1537514,20.7831764,20.5419903,14.1719284,20.5420532,14.1719284z M79.4580078,70.1058121  c0.9719391,0.9799118-0.513916,2.4597855-1.4905548,1.4905548c0,0-6.611763-6.6112518-6.6116943-6.6112518  c-0.9725189-0.9804916,0.5145645-2.4592056,1.4904861-1.490551L79.4580078,70.1058121z M48.9459076,10.8835468  c0,0,0-9.3499355,0-9.3498707c0.0055962-1.3807317,2.1030388-1.3757133,2.1081848-0.0000644v9.3499355  C51.0484962,12.2642145,48.9510536,12.2591314,48.9459076,10.8835468z"/><text x="0" y="115" fill="#000000" font-size="5px" font-weight="bold" font-family="'Helvetica Neue', Helvetica, Arial-Unicode, Arial, Sans-serif">Created by ahmadwil</text><text x="0" y="120" fill="#000000" font-size="5px" font-weight="bold" font-family="'Helvetica Neue', Helvetica, Arial-Unicode, Arial, Sans-serif">from the Noun Project</text></svg>