<svg xmlns="http://www.w3.org/2000/svg" version="1.1" viewBox="-5.0 -10.0 110.0 135.0">
 <path d="m72.277 58.469c0.94531 0.17969 1.918-0.066406 2.668-0.66406 0.74609-0.60156 1.1953-1.5 1.2227-2.4609v-4.332c0-1.7266-1.3984-3.125-3.125-3.125h-3.8477v-7.9023h2.668c1.8633-0.003906 3.375-1.5156 3.3789-3.3789v-22.434c-0.007813-4.3711-3.5508-7.918-7.9258-7.9219h-35.594c-4.3711 0.003906-7.918 3.5508-7.9219 7.9219v22.434c0 1.8633 1.5117 3.375 3.375 3.3789h4.2344v7.9023h-5.2031c-1.7266 0-3.125 1.3984-3.125 3.125v4.332c0 1.7266 1.3984 3.1211 3.125 3.125h1.5352l-5.2031 32.367c-0.13281 0.81641 0.39844 1.5977 1.207 1.7734l5.0391 1.1016v0.003906c0.80859 0.17578 1.6172-0.30859 1.8398-1.1094l9.5273-34.137h19.719l9.5039 34.098c0.22266 0.79688 1.0312 1.2812 1.8398 1.1055l5.0391-1.1016c0.80859-0.17969 1.3398-0.95703 1.207-1.7734zm-6.207-10.582h-3.7461v-7.9023h3.7461zm-12.383 0v-7.9023h5.5117v7.9023zm-4.25 0v-7.9023h1.125v7.9023zm-8.0156 0 0.003906-7.9023h4.8906v7.9023zm-14.496-11.281v-22.434c0.003907-2.6484 2.1484-4.793 4.7969-4.7969h35.594c2.6484 0.003906 4.7969 2.1484 4.8008 4.7969v22.434c0 0.14062-0.11328 0.25-0.25391 0.25391h-4.2539-27.727c-0.11328 0.003906-6.8242-0.003906-6.9336 0h-5.7734c-0.14062-0.003906-0.25-0.11328-0.25-0.25391zm7.6094 3.375h3.7656v7.9023l-3.7656 0.003907zm-8.3281 11.031h46.836v4.332h-46.836zm1.8047 39.336-2.1523-0.47266 5.0508-31.406h6zm43.977-0.042968-8.875-31.836h6l5.0312 31.363z"/>
<text x="0.0" y="117.5" font-size="5.0" font-weight="bold" font-family="Arbeit Regular, Helvetica, Arial-Unicode, Arial, Sans-serif" fill="#000000">Created by Dincha Agatha</text><text x="0.0" y="122.5" font-size="5.0" font-weight="bold" font-family="Arbeit Regular, Helvetica, Arial-Unicode, Arial, Sans-serif" fill="#000000">from Noun Project</text></svg>