<svg xmlns="http://www.w3.org/2000/svg" data-name="Layer 1" viewBox="0 0 100 125" x="0px" y="0px"><path d="M48.759,22.188c0-.622,.504-1.127,1.127-1.127h27.187c.622,0,1.127,.504,1.127,1.127s-.504,1.127-1.127,1.127h-27.187c-.622,0-1.127-.504-1.127-1.127Zm-.629,8.571h28.942c.622,0,1.127-.504,1.127-1.127s-.504-1.127-1.127-1.127h-28.942c-.622,0-1.127,.504-1.127,1.127s.504,1.127,1.127,1.127ZM13.613,45.647h63.459c.622,0,1.127-.504,1.127-1.127s-.504-1.127-1.127-1.127H13.613c-.622,0-1.127,.504-1.127,1.127s.504,1.127,1.127,1.127Zm28.129-7.444h35.33c.622,0,1.127-.504,1.127-1.127s-.504-1.127-1.127-1.127H41.742c-.622,0-1.127,.504-1.127,1.127s.504,1.127,1.127,1.127Zm51.039,39.289c.323,1.906-.135,3.447-1.4,4.712-.377,.377-.779,.68-1.207,.914l4.3,9.079c.191,.404,.126,.883-.168,1.221-.293,.338-.758,.47-1.185,.337l-4.462-1.388-2.168,4.14c-.195,.373-.581,.604-.998,.604-.026,0-.052,0-.078-.003-.446-.031-.832-.323-.983-.744l-3.392-9.458c-.479,.145-.991,.217-1.539,.217-.533,0-1.032-.07-1.5-.207l-3.379,9.461c-.15,.421-.536,.713-.982,.745-.027,.002-.053,.003-.08,.003-.416,0-.801-.23-.997-.603l-2.173-4.137-4.46,1.394c-.427,.133-.892,.002-1.186-.335-.294-.337-.36-.816-.169-1.221l4.289-9.086c-.441-.237-.855-.547-1.242-.934-1.265-1.265-1.723-2.806-1.4-4.712,.193-1.139-.237-2.176-1.178-2.844-1.576-1.119-2.342-2.533-2.342-4.322,0-.553,.074-1.069,.221-1.553h-20.796c.001,.039,.006,.076,.006,.115v12.889c0,1.857-.617,4.767-1.8,7.238,.77,.358,1.307,1.136,1.307,2.04v3.822c0,1.241-1.009,2.25-2.25,2.25H20.228c-1.241,0-2.25-1.009-2.25-2.25v-3.822c0-.737,.358-1.39,.907-1.801-.26-.873-.754-1.648-1.481-2.307l-2.48-2.249c-1.595-1.447-2.438-3.35-2.438-5.503v-10.117c0-.102,.005-.204,.012-.304H4.826c-.622,0-1.127-.504-1.127-1.127V13.95c0-.622,.504-1.127,1.127-1.127H12.989C15.858,6.938,21.902,2.873,28.878,2.873s13.02,4.065,15.889,9.95h41.092c.622,0,1.127,.504,1.127,1.127V57.002c1.761-.223,3.202,.252,4.395,1.446,1.264,1.264,1.722,2.806,1.4,4.712-.193,1.139,.237,2.176,1.178,2.845,1.576,1.119,2.342,2.533,2.342,4.322s-.766,3.202-2.342,4.322c-.942,.669-1.371,1.706-1.178,2.844ZM13.467,20.538c0,8.498,6.914,15.412,15.412,15.412s15.412-6.914,15.412-15.412-6.914-15.412-15.412-15.412-15.412,6.914-15.412,15.412Zm-.143,45.982c.79-1.079,2.065-1.781,3.502-1.781,.086,0,.171,.003,.256,.008,.027,.002,.053,.004,.079,.006,.059,.005,.118,.01,.177,.017,.029,.003,.057,.007,.086,.011,.06,.008,.119,.018,.177,.029,.024,.004,.048,.008,.072,.013,.081,.016,.161,.034,.241,.055,.012,.003,.023,.007,.035,.01,.068,.018,.135,.038,.202,.06,.026,.008,.051,.017,.076,.026,.053,.018,.106,.037,.159,.058,.026,.01,.052,.02,.078,.031,.056,.023,.111,.047,.166,.072,.019,.009,.039,.017,.058,.026,.073,.035,.144,.071,.215,.11,.003,.002,.006,.003,.009,.004v-4.738h-5.298c-.622,0-1.127-.504-1.127-1.127s.504-1.127,1.127-1.127h5.298v-4.386c0-.276,.028-.545,.081-.805h-5.379c-.622,0-1.127-.504-1.127-1.127s.504-1.127,1.127-1.127h6.722c.698-.59,1.598-.947,2.581-.947s1.883,.357,2.581,.947h51.575c.622,0,1.127,.504,1.127,1.127s-.504,1.127-1.127,1.127H26.84c.053,.26,.081,.529,.081,.805v4.386h40.877c1.231-1.138,2.718-1.543,4.538-1.235,1.14,.193,2.176-.236,2.845-1.178,1.119-1.576,2.533-2.342,4.322-2.342s3.202,.766,4.322,2.342h0c.254,.358,.562,.642,.908,.846V15.077H45.678c.561,1.721,.865,3.556,.865,5.461,0,9.74-7.924,17.665-17.665,17.665S11.213,30.278,11.213,20.538c0-1.905,.304-3.741,.865-5.461H5.952v51.444h7.371Zm5.594,18.758c1.094,.993,1.827,2.177,2.185,3.527h16.8c1.284-2.265,1.978-5.28,1.978-7.028v-12.889c0-.728-.592-1.32-1.32-1.32s-1.32,.592-1.32,1.32v2.068c0,.622-.504,1.127-1.127,1.127s-1.127-.504-1.127-1.127v-4.14c0-.772-.628-1.4-1.4-1.4s-1.4,.628-1.4,1.4v2.807c0,.622-.504,1.127-1.127,1.127s-1.127-.504-1.127-1.127v-3.67c0-.831-.676-1.507-1.506-1.507-.831,0-1.506,.676-1.506,1.507v3.472c0,.622-.504,1.127-1.127,1.127s-1.127-.504-1.127-1.127v-15.529c0-.966-.786-1.752-1.752-1.752s-1.752,.786-1.752,1.752v20.697c0,.622-.504,1.127-1.127,1.127s-1.127-.504-1.127-1.127v-5.515c0-1.15-.936-2.086-2.086-2.086s-2.085,.936-2.085,2.086v10.117c0,1.522,.571,2.812,1.698,3.834l2.48,2.249Zm20.473,9.596l-.003-3.819-19.159,.003,.003,3.816h19.159Zm1.839-28.353h23.173c.198-.178,.41-.351,.643-.516,.942-.669,1.371-1.706,1.178-2.844-.163-.964-.126-1.835,.114-2.624H26.921v1.973c.461-.203,.971-.315,1.506-.315,1.277,0,2.407,.64,3.087,1.616,.589-.407,1.304-.646,2.073-.646,1.607,0,2.975,1.043,3.462,2.487,.459-.215,.971-.335,1.511-.335,1.062,0,2.014,.468,2.669,1.205Zm34.794,19.241c-.298-.282-.579-.607-.843-.979-.669-.942-1.705-1.371-2.845-1.178-.434,.074-.847,.105-1.244,.097l-3.381,7.163,2.906-.908c.52-.162,1.08,.07,1.333,.551l1.416,2.695,2.658-7.441Zm11.933-2.061c-.41,.011-.838-.02-1.288-.096-1.139-.193-2.176,.236-2.844,1.178-.255,.359-.525,.673-.812,.948l2.675,7.456,1.412-2.697c.252-.482,.813-.715,1.333-.553l2.907,.904-3.383-7.141Zm6.092-13.374c0-1.048-.417-1.791-1.394-2.485-1.65-1.172-2.433-3.062-2.095-5.058,.2-1.182-.031-2.002-.771-2.743-.741-.741-1.561-.972-2.743-.772-1.995,.339-3.886-.445-5.058-2.095-.694-.977-1.437-1.394-2.485-1.394s-1.791,.417-2.485,1.394c-1.172,1.65-3.063,2.433-5.058,2.095-1.182-.2-2.002,.031-2.743,.772-.741,.741-.972,1.561-.771,2.743,.338,1.995-.445,3.886-2.095,5.058-.977,.694-1.394,1.437-1.394,2.485s.417,1.791,1.394,2.485c1.65,1.172,2.433,3.062,2.095,5.058-.2,1.182,.031,2.002,.771,2.743,.741,.741,1.562,.972,2.743,.771,.306-.052,.61-.077,.909-.077,1.65,0,3.157,.775,4.149,2.172,.694,.977,1.437,1.394,2.485,1.394s1.791-.417,2.485-1.394c1.172-1.65,3.063-2.433,5.057-2.095,1.182,.2,2.002-.031,2.743-.772,.741-.741,.972-1.561,.771-2.743-.338-1.995,.445-3.886,2.095-5.058,.977-.694,1.394-1.437,1.394-2.485Zm-5.873,0c0,4.782-3.89,8.672-8.672,8.672s-8.673-3.89-8.673-8.672,3.89-8.672,8.673-8.672,8.672,3.89,8.672,8.672Zm-2.253,0c0-3.54-2.88-6.419-6.419-6.419s-6.419,2.88-6.419,6.419,2.88,6.419,6.419,6.419,6.419-2.88,6.419-6.419ZM18.873,20.554c-.9-1.559-.364-3.56,1.195-4.46,1.559-.9,3.56-.364,4.46,1.195l1.877,3.251,7.343-7.343c1.273-1.273,3.344-1.273,4.617,0,0,0,0,0,0,0,1.273,1.273,1.273,3.344,0,4.617l-9.921,9.921c-.716,.716-1.629,1.095-2.612,1.095-.169,0-.341-.011-.514-.034-1.177-.155-2.151-.806-2.745-1.834l-3.7-6.409Zm1.951-1.127l3.7,6.409c.242,.419,.608,.663,1.087,.727,.48,.063,.896-.078,1.238-.421l9.921-9.921c.394-.394,.394-1.036,0-1.431-.394-.394-1.036-.394-1.431,0l-8.381,8.381c-.247,.248-.596,.366-.944,.32-.347-.046-.653-.25-.829-.554l-2.611-4.523c-.187-.324-.528-.506-.878-.506-.172,0-.345,.044-.504,.135-.483,.279-.649,.899-.37,1.382Z"/><text x="0" y="115" fill="#000000" font-size="5px" font-weight="bold" font-family="'Helvetica Neue', Helvetica, Arial-Unicode, Arial, Sans-serif">Created by Mia Elysia</text><text x="0" y="120" fill="#000000" font-size="5px" font-weight="bold" font-family="'Helvetica Neue', Helvetica, Arial-Unicode, Arial, Sans-serif">from the Noun Project</text></svg>